# xmcd
# 
# Track frame offsets:
#     150
#     1486
#     15723
#     27077
#     41217
#     53531
#     68067
#     81411
#     96662
#     111192
#     125082
#     140635
#     150400
#     162702
# 
# Disc length: 2371
# 
# Revision: 1
# Processed by: cddbd v1.5.2PL0 Copyright (c) Steve Scherf et al.
# Submitted via: fre:ac v1.0.31
# 
DISCID=c009410e
DTITLE=Larry Hernández - Larrymanía
DYEAR=2010
DGENRE=Banda
TTITLE0=Notiradio
TTITLE1=El 6
TTITLE2=Arrastrando Las Patas
TTITLE3=Duele
TTITLE4=División MP
TTITLE5=El Mayito Gordo
TTITLE6=Los Empecherados
TTITLE7=Sr. Violencia
TTITLE8=Esta Desilución
TTITLE9=El Macho Prieto
TTITLE10=El 9
TTITLE11=Corrido Del Junior
TTITLE12=Manuel Torres Por Mi Padre
TTITLE13=El Pikas
EXTD=
EXTT0=
EXTT1=
EXTT2=
EXTT3=
EXTT4=
EXTT5=
EXTT6=
EXTT7=
EXTT8=
EXTT9=
EXTT10=
EXTT11=
EXTT12=
EXTT13=
PLAYORDER=
